<svg xmlns="http://www.w3.org/2000/svg" viewBox="0 0 240 200" preserveAspectRatio="xMidYMid meet">
  <defs>
    <linearGradient id="markGrad" x1="0%" y1="0%" x2="100%" y2="0%">
      <stop offset="0%" stop-color="#2e2e2e"/>
      <stop offset="50%" stop-color="#9b7a3a"/>
      <stop offset="100%" stop-color="#f5a623"/>
    </linearGradient>
    <linearGradient id="markGrad2" x1="0%" y1="0%" x2="100%" y2="0%">
      <stop offset="0%" stop-color="#555555"/>
      <stop offset="50%" stop-color="#b8913f"/>
      <stop offset="100%" stop-color="#f5a623"/>
    </linearGradient>
  </defs>

  <!-- Back layer -->
  <path d="M 28 170 C 42 170 50 46 78 46 C 106 46 114 170 138 170 C 162 170 170 28 200 28 C 220 28 232 100 242 170"
        fill="none" stroke="url(#markGrad2)" stroke-width="17" stroke-linecap="round" opacity="0.35"/>

  <!-- Main wave -->
  <path d="M 12 170 C 26 170 34 42 62 42 C 90 42 98 170 122 170 C 146 170 154 22 184 22 C 206 22 218 98 228 170"
        fill="none" stroke="url(#markGrad)" stroke-width="22" stroke-linecap="round"/>

  <!-- Dots at peaks -->
  <circle cx="62"  cy="36" r="10" fill="#f5a623"/>
  <circle cx="184" cy="16" r="10" fill="#f5a623"/>
</svg>
